Coordinates
version=1
nRows=8
nColumns=36
inDegrees=yes

Units are S.I. units (second, meters, Newtons, ...)
If the header above contains a line with 'inDegrees', this indicates whether rotational values are in degrees (yes) or radians (no).

endheader
time	pelvis_tilt	pelvis_list	pelvis_rotation	pelvis_tx	pelvis_ty	pelvis_tz	hip_flexion_r	hip_adduction_r	hip_rotation_r	knee_angle_r	knee_angle_r_beta	ankle_angle_r	subtalar_angle_r	mtp_angle_r	hip_flexion_l	hip_adduction_l	hip_rotation_l	knee_angle_l	knee_angle_l_beta	ankle_angle_l	subtalar_angle_l	mtp_angle_l	lumbar_extension	lumbar_bending	lumbar_rotation	arm_flex_r	arm_add_r	arm_rot_r	elbow_flex_r	pro_sup_r	arm_flex_l	arm_add_l	arm_rot_l	elbow_flex_l	pro_sup_l
      0.00000000	      2.45222258	     -0.58227283	      3.25795127	     -0.07389092	      1.23089651	      0.28730811	      0.15715600	     -1.00254584	      2.06140201	      4.11124337	      0.07175473	      4.00328509	     -7.08124959	     -7.55282550	     -1.27567546	     -2.97288533	     -0.68064043	      4.44119772	      0.07751352	      7.94448626	     -8.36352489	     -7.55282550	     -7.13939813	      0.73561651	      0.45531436	     34.15632545	     -0.81643305	     59.62598785	    121.74851650	     82.86816570	     38.75256748	      0.27228266	     61.30729578	    111.32504992	     86.31400035
      0.01666670	      2.05345467	     -0.50163470	      2.52619471	     -0.07317454	      1.22986820	      0.28603278	      0.22485515	     -1.26206046	      2.64809599	      3.32940917	      0.05810915	      4.73186411	     -6.16827860	     -7.53815345	     -1.24780280	     -2.79402935	     -2.62364228	      3.20837830	      0.05599676	      7.21180205	     -8.12052236	     -7.53815345	     -7.30393051	      1.16063237	      1.23395657	     38.81912943	     -2.83591570	     68.91963326	    125.58867356	     98.95624033	     40.10851219	     -0.88435727	     59.59739064	    114.61617087	    101.61502023
      0.03333330	      1.65676575	     -0.57503395	      2.71402207	     -0.07287529	      1.22765848	      0.28566095	      0.65977787	     -1.24407219	      2.38602032	      3.34097218	      0.05831096	      4.52257118	     -5.79977037	     -7.52557627	     -0.92520579	     -2.84181019	     -3.64047999	      2.86555833	      0.05001343	      6.42666803	     -8.53942157	     -7.52557627	     -6.77442820	      1.27113958	      0.34296902	     39.57860751	     -0.51587945	     68.25360758	    125.90310378	    101.45709176	     40.39065985	     -1.97708819	     59.66552310	    115.60454863	    105.98135196
      0.05000000	      1.68968126	     -0.54012033	      3.11496263	     -0.07392942	      1.22761665	      0.28475570	      0.58879019	     -1.37155720	      1.59248383	      3.36870506	      0.05879499	      4.30752063	     -5.19004476	     -7.52267535	     -0.71841113	     -2.81590640	     -4.58805558	      2.91543109	      0.05088387	      6.22446390	     -8.39598847	     -7.52267535	     -6.67748155	      1.10742050	      0.08187178	     39.93329419	      0.56941018	     67.63426370	    124.98540873	    100.66472718	     41.23345230	     -2.10113030	     60.53832837	    115.87801075	    105.40676812
      0.06666670	      1.57707212	     -0.50748525	      3.38958151	     -0.07375895	      1.22779833	      0.28426427	      0.80976651	     -1.40610963	      1.09125186	      3.70691313	      0.06469784	      4.57481056	     -4.58712525	     -7.52028527	     -0.48461281	     -2.75716409	     -5.09231968	      3.01738099	      0.05266323	      6.28649340	     -8.06943978	     -7.52028527	     -6.50205016	      1.01289464	     -0.09788090	     39.96978409	      1.18985100	     67.57100561	    124.02374433	    100.51056953	     41.61896301	     -2.02764925	     60.92225406	    116.01501584	    105.41050786
      0.08333330	      1.18920290	     -0.51117403	      3.57027980	     -0.07419006	      1.22771504	      0.28402983	      1.36876426	     -1.40379275	      1.00389612	      4.06176636	      0.07089120	      4.65082947	     -4.42606830	     -7.51758316	      0.07107821	     -2.76031934	     -5.38807938	      3.23190614	      0.05640740	      6.14217063	     -7.90217728	     -7.51758316	     -6.02630892	      0.93511247	     -0.11130650	     39.65054787	      1.41628601	     67.41278972	    123.44225608	    101.28230699	     41.79602845	     -1.81248637	     60.97828086	    115.99312930	    106.25113621
      0.10000000	      0.86731824	     -0.52517802	      3.79256367	     -0.07377635	      1.22786534	      0.28411856	      1.77909042	     -1.36201070	      0.94512661	      4.24666988	      0.07411837	      4.67780676	     -4.34589660	     -7.51586911	      0.51045875	     -2.77569884	     -5.56910418	      3.40912764	      0.05950050	      6.09091646	     -7.67022425	     -7.51586911	     -5.55075694	      0.90177935	     -0.11434901	     39.35131798	      1.47220398	     67.26614719	    123.15288217	    100.00595561	     41.85060670	     -1.64337749	     61.11163305	    115.91516053	    105.00711689
      0.11666670	      0.67778206	     -0.54041789	      3.96702603	     -0.07414789	      1.23110672	      0.28415140	      1.99907080	     -1.29785160	      1.13633262	      4.31790661	      0.07536169	      4.56792471	     -4.65514300	     -7.51324888	      0.81681988	     -2.81251358	     -5.67758555	      3.52332757	      0.06149367	      6.08974689	     -7.31332903	     -7.51324888	     -5.35343264	      0.84229621	     -0.08554713	     38.91672947	      1.26601196	     67.39463459	    122.71099512	     98.75971795	     41.72864448	     -1.71610849	     60.97982286	    115.35836141	    104.10053278
